<?xml version="1.0" standalone="no"?>
<!DOCTYPE svg PUBLIC "-//W3C//DTD SVG 20010904//EN"
 "http://www.w3.org/TR/2001/REC-SVG-20010904/DTD/svg10.dtd">
<svg version="1.0" xmlns="http://www.w3.org/2000/svg"
 width="722.000000pt" height="722.000000pt" viewBox="0 0 722.000000 722.000000"
 preserveAspectRatio="xMidYMid meet">

<g transform="translate(0.000000,722.000000) scale(0.100000,-0.100000)"
fill="#000000" stroke="#FFFFFF">
<path d="M3583 6823 c-18 -21 -61 -74 -96 -118 -108 -137 -306 -287 -537 -405
-119 -60 -135 -75 -119 -117 14 -38 43 -37 133 5 278 131 541 336 661 518 l38
58 16 -24 c9 -14 42 -57 73 -96 223 -277 638 -513 1159 -658 l56 -16 7 -46
c14 -108 -2 -347 -34 -489 -23 -103 -64 -234 -108 -348 -38 -100 -43 -121 -34
-142 12 -25 52 -34 79 -17 14 9 82 179 116 292 67 220 87 352 87 581 0 256 11
243 -255 324 -471 144 -858 386 -1035 648 -45 67 -74 87 -128 87 -40 0 -49 -5
-79 -37z"/>
<path d="M3610 6437 c-34 -17 -52 -55 -46 -101 6 -52 33 -77 89 -83 41 -5 49
-2 77 25 84 84 -13 213 -120 159z"/>
<path d="M2480 6119 c-225 -72 -222 -69 -231 -238 -13 -268 36 -549 146 -832
48 -122 179 -392 238 -492 26 -43 47 -81 47 -83 0 -2 -64 -4 -143 -4 l-143 0
-54 56 c-57 58 -101 84 -144 84 -17 0 -31 10 -45 34 -26 42 -75 66 -134 66
-151 0 -201 -206 -69 -283 63 -37 165 -14 199 44 27 46 59 39 123 -27 79 -81
89 -84 299 -84 l180 0 41 -59 c22 -33 40 -62 40 -65 0 -4 -150 -6 -333 -6
l-332 0 -29 31 c-122 128 -328 -13 -248 -171 51 -103 208 -108 265 -9 l22 39
370 0 370 -1 40 -56 c22 -32 44 -63 48 -70 6 -11 -31 -13 -195 -13 l-203 0
-22 34 c-36 56 -129 84 -186 55 -72 -37 -106 -108 -87 -181 33 -119 178 -152
261 -59 l37 41 245 0 246 0 45 -56 c26 -31 46 -59 46 -62 0 -4 -39 -5 -86 -3
-144 5 -165 -1 -243 -75 -79 -74 -105 -80 -140 -33 -70 94 -202 91 -258 -7
-35 -61 -28 -131 20 -182 25 -27 79 -52 111 -52 38 1 106 38 124 70 14 25 23
30 54 30 55 0 80 13 151 79 l65 61 150 0 150 0 54 -62 c217 -247 262 -288 321
-288 63 0 106 37 312 273 l67 77 152 0 152 0 54 -55 c62 -63 103 -85 157 -85
32 0 41 -5 55 -31 11 -18 36 -38 63 -50 136 -60 263 78 195 211 -51 100 -191
106 -261 11 -35 -47 -64 -42 -129 25 -30 30 -64 61 -75 67 -11 6 -75 14 -143
17 l-122 5 45 58 45 57 247 0 246 0 36 -39 c78 -85 200 -71 251 29 25 50 25
83 0 134 -30 61 -63 81 -135 81 -66 0 -100 -18 -130 -67 l-16 -28 -205 0
c-166 0 -203 2 -197 13 4 7 26 38 48 70 l40 56 375 1 375 0 19 -35 c56 -104
215 -100 268 5 51 101 -19 220 -129 220 -54 0 -106 -23 -128 -56 l-15 -24
-340 0 c-187 0 -340 2 -340 6 0 3 18 32 40 64 l40 58 200 4 200 3 68 68 c79
79 115 88 145 38 36 -61 144 -81 208 -38 91 60 90 192 -1 255 -64 44 -170 22
-211 -44 -16 -26 -27 -34 -50 -34 -48 0 -90 -24 -149 -84 l-54 -56 -144 0
-144 0 42 73 c91 159 105 194 92 221 -9 20 -19 26 -41 26 -36 0 -40 -5 -133
-170 -123 -219 -344 -539 -527 -765 -180 -221 -394 -455 -416 -455 -15 0 -147
137 -266 275 -711 827 -1088 1620 -1044 2200 l7 95 56 16 c137 38 256 81 266
96 7 11 7 26 0 45 -14 41 -55 39 -204 -8z m-428 -1526 c25 -22 23 -50 -6 -68
-34 -23 -66 -5 -66 35 0 44 39 63 72 33z m3289 7 c27 -15 26 -66 -2 -80 -16
-9 -26 -8 -45 5 -28 18 -31 41 -7 67 19 21 27 22 54 8z m-3293 -406 c29 -20
28 -50 -2 -69 -19 -13 -29 -14 -45 -5 -26 14 -29 65 -3 79 23 14 24 14 50 -5z
m3302 1 c6 -3 10 -20 10 -36 0 -41 -41 -61 -70 -34 -47 42 6 104 60 70z
m-2856 -241 c18 -46 -7 -81 -49 -70 -29 7 -44 49 -25 71 17 20 66 19 74 -1z
m2416 0 c10 -11 11 -23 4 -42 -17 -48 -84 -38 -84 12 0 43 53 63 80 30z
m-2282 -366 c36 -36 -11 -93 -57 -69 -39 21 -21 81 24 81 12 0 26 -5 33 -12z
m2140 0 c17 -17 15 -53 -3 -68 -38 -31 -96 27 -65 65 15 18 51 20 68 3z"/>
<path d="M2547 5822 c-58 -60 -24 -158 59 -169 73 -10 128 63 103 136 -23 65
-114 83 -162 33z"/>
<path d="M4645 5824 c-32 -34 -40 -76 -21 -111 20 -40 38 -53 80 -60 43 -7 78
13 101 58 49 93 -89 190 -160 113z"/>
<path d="M3569 5767 c-153 -44 -269 -187 -269 -335 0 -82 -7 -100 -45 -112
-48 -16 -82 -46 -106 -91 -19 -38 -20 -56 -17 -308 l3 -268 28 -36 c16 -21 46
-46 67 -57 37 -19 60 -20 435 -20 369 0 398 1 433 19 45 23 77 56 91 94 7 17
11 127 11 283 0 234 -2 258 -20 293 -23 46 -57 75 -106 91 -32 11 -34 14 -34
58 0 65 -26 169 -55 217 -34 59 -107 123 -173 152 -69 30 -176 39 -243 20z
m224 -130 c88 -52 126 -118 134 -234 l6 -73 -267 0 -266 0 0 53 c0 130 66 232
177 273 59 22 162 13 216 -19z m267 -427 c31 -16 37 -58 39 -268 2 -212 -5
-264 -39 -282 -11 -6 -166 -10 -398 -10 -359 0 -381 1 -403 19 -24 19 -24 22
-27 233 -4 234 0 270 29 299 18 18 36 19 400 19 229 0 388 -4 399 -10z"/>
<path d="M3612 5050 c-60 -36 -69 -109 -22 -163 17 -19 30 -46 30 -60 0 -46
10 -57 51 -57 l39 0 0 44 c0 35 5 47 25 60 62 41 50 152 -19 181 -47 20 -65
19 -104 -5z"/>
<path d="M3595 3866 c-43 -43 -45 -101 -5 -144 61 -65 170 -21 170 68 0 87
-106 135 -165 76z"/>
<path d="M2590 2979 c-25 -10 -69 -21 -97 -24 -40 -6 -53 -11 -53 -24 0 -12
13 -20 43 -27 l42 -9 3 -350 c1 -192 0 -360 -3 -372 -4 -17 -15 -24 -45 -29
-30 -5 -40 -11 -40 -25 0 -18 10 -19 145 -19 138 0 145 1 145 20 0 15 -7 20
-25 20 -14 0 -34 9 -45 20 -18 18 -20 33 -20 189 l0 170 37 28 c48 37 120 38
158 3 36 -34 45 -78 45 -231 0 -148 -5 -164 -55 -177 -17 -5 -31 -16 -33 -25
-3 -15 11 -17 143 -17 133 0 146 2 143 17 -2 10 -18 22 -38 27 -19 5 -38 15
-42 20 -4 6 -8 70 -8 141 0 142 -13 242 -36 287 -44 86 -177 91 -282 11 l-34
-25 3 205 c2 113 1 208 -1 210 -3 2 -25 -4 -50 -14z"/>
<path d="M1770 2928 c0 -20 7 -26 42 -34 33 -7 44 -15 49 -34 9 -31 11 -647 3
-678 -5 -17 -18 -26 -50 -34 -31 -9 -44 -17 -44 -30 0 -17 13 -18 165 -18 155
0 165 1 165 19 0 14 -10 20 -39 25 -74 11 -71 -3 -71 381 0 262 3 346 12 351
25 16 144 9 172 -9 86 -57 102 -217 30 -297 -52 -58 -99 -68 -187 -43 -35 10
-16 -40 23 -60 43 -23 131 -17 188 12 101 51 164 176 142 278 -18 78 -52 120
-128 156 l-67 32 -202 3 -203 4 0 -24z"/>
<path d="M3896 2747 c-14 -25 -46 -63 -71 -85 -58 -51 -59 -72 -5 -72 l40 0 0
-187 c0 -159 3 -193 18 -223 40 -81 140 -104 233 -53 52 28 54 30 40 52 -6 10
-13 11 -29 2 -38 -20 -100 -13 -127 14 -25 24 -25 26 -25 210 l0 185 84 0 c67
0 85 3 90 16 16 41 9 44 -84 44 l-89 0 -3 68 c-3 60 -5 67 -24 70 -16 2 -28
-8 -48 -41z"/>
<path d="M3327 2646 c-110 -40 -177 -141 -177 -270 1 -282 384 -382 528 -138
24 43 27 56 27 144 0 96 0 96 -40 154 -55 81 -137 124 -233 124 -37 -1 -84 -7
-105 -14z m170 -69 c67 -45 112 -160 98 -250 -27 -170 -162 -227 -263 -112
-47 53 -62 100 -62 191 0 162 112 247 227 171z"/>
<path d="M4395 2648 c-184 -68 -244 -304 -114 -451 111 -127 313 -132 420 -9
122 138 92 339 -65 436 -42 26 -61 30 -130 33 -45 1 -94 -2 -111 -9z m142 -58
c77 -34 130 -145 120 -251 -11 -128 -92 -205 -187 -179 -77 21 -131 108 -138
222 -4 70 -2 83 23 134 22 45 36 60 69 75 51 23 61 23 113 -1z"/>
<path d="M4975 2643 c-38 -7 -80 -16 -92 -19 -33 -6 -31 -44 1 -44 15 0 33
-11 46 -27 20 -26 21 -36 18 -206 -3 -163 -5 -180 -22 -193 -11 -8 -30 -14
-43 -14 -16 0 -23 -6 -23 -20 0 -19 7 -20 146 -20 131 0 145 2 142 17 -2 9
-18 21 -38 26 -19 5 -38 14 -42 20 -4 7 -8 89 -8 184 l0 171 31 26 c41 35 75
42 123 25 70 -25 81 -56 81 -242 0 -145 -2 -160 -19 -173 -11 -8 -30 -14 -43
-14 -16 0 -23 -6 -23 -20 0 -19 7 -20 146 -20 131 0 145 2 142 17 -2 10 -18
21 -38 26 -19 5 -39 12 -44 17 -5 5 -12 91 -15 192 -8 208 -23 263 -80 292
-64 34 -174 12 -238 -47 l-23 -20 0 41 c0 23 -3 41 -7 41 -5 -1 -39 -8 -78
-16z"/>
<path d="M1735 1586 c-57 -27 -108 -77 -125 -121 -14 -38 -15 -121 -1 -158 17
-44 99 -118 191 -171 141 -81 161 -96 176 -131 46 -111 -18 -205 -140 -205
-100 0 -146 32 -190 133 -22 48 -30 57 -51 57 -30 0 -31 -11 -9 -131 l15 -85
82 -17 c170 -35 276 -17 358 62 69 68 87 146 49 229 -25 56 -63 89 -195 172
-145 91 -176 123 -183 191 -9 99 39 146 143 137 48 -4 61 -10 95 -43 22 -21
46 -57 53 -79 10 -29 20 -42 35 -44 24 -4 24 -3 22 78 -2 111 -4 114 -75 133
-93 25 -188 22 -250 -7z"/>
<path d="M4510 1560 c-41 -41 -10 -110 48 -110 60 0 88 56 52 103 -26 33 -71
36 -100 7z"/>
<path d="M4866 1397 c-14 -25 -46 -63 -71 -85 -58 -51 -59 -72 -5 -72 l40 0 0
-187 c0 -211 7 -239 69 -280 58 -39 175 -23 219 29 18 22 -1 42 -26 29 -38
-20 -100 -13 -127 14 -25 24 -25 26 -25 210 l0 185 84 0 c67 0 85 3 90 16 16
41 9 44 -84 44 l-89 0 -3 68 c-3 60 -5 67 -24 70 -16 2 -28 -8 -48 -41z"/>
<path d="M3370 1303 c-86 -16 -104 -24 -108 -47 -3 -11 4 -16 22 -16 14 0 35
-9 46 -20 18 -18 20 -33 20 -127 0 -189 25 -278 89 -320 60 -40 135 -29 219
34 l32 24 0 -42 c0 -40 1 -41 28 -36 15 3 57 11 95 18 79 15 92 39 30 55 -51
13 -56 38 -51 286 4 205 4 207 -17 202 -11 -2 -53 -11 -94 -18 -40 -8 -78 -19
-83 -24 -14 -14 -1 -32 21 -32 11 0 29 -9 42 -19 23 -18 24 -26 27 -165 4
-163 -1 -182 -60 -212 -39 -20 -92 -13 -125 17 -37 36 -45 87 -42 278 2 106
-1 175 -6 176 -6 1 -44 -4 -85 -12z"/>
<path d="M5266 1310 c-91 -3 -131 -9 -134 -17 -2 -7 5 -16 15 -19 79 -26 65
-1 218 -379 l57 -140 -17 -55 c-31 -101 -56 -127 -136 -144 -33 -7 -44 -42
-23 -73 30 -46 108 -20 148 50 14 23 79 190 146 372 67 181 126 335 132 342 6
7 25 17 42 21 20 5 31 15 31 26 0 17 -11 18 -118 20 -115 1 -117 1 -117 -21 0
-17 6 -23 23 -23 28 0 47 -17 47 -45 0 -22 -92 -295 -100 -295 -7 0 -120 270
-127 303 -5 24 -2 28 26 33 24 5 31 12 31 30 0 13 -3 23 -7 22 -5 -1 -66 -5
-137 -8z"/>
<path d="M2360 1297 c-51 -16 -123 -93 -143 -152 -25 -73 -22 -178 7 -240 27
-60 103 -131 155 -145 106 -29 229 11 270 88 19 36 5 41 -46 16 -60 -31 -153
-33 -200 -4 -44 27 -84 91 -91 145 l-5 45 175 0 c200 0 205 2 194 71 -13 82
-59 145 -128 174 -42 17 -136 18 -188 2z m152 -64 c21 -18 57 -88 58 -110 0
-10 -33 -13 -131 -13 l-131 0 6 32 c7 38 50 96 80 109 31 13 94 4 118 -18z"/>
<path d="M2890 1288 c-113 -57 -170 -227 -123 -364 23 -68 102 -146 165 -163
100 -28 228 11 268 81 20 37 8 44 -37 22 -22 -10 -68 -20 -108 -22 -89 -5
-127 18 -167 97 -53 104 -31 255 44 301 58 35 110 21 161 -44 48 -62 107 -44
107 32 0 26 -7 34 -52 56 -71 36 -192 37 -258 4z"/>
<path d="M4032 1291 c-57 -11 -87 -22 -93 -34 -8 -13 -6 -19 8 -23 49 -15 64
-26 73 -50 11 -27 12 -300 1 -349 -5 -24 -14 -31 -46 -41 -22 -6 -40 -17 -40
-25 0 -11 29 -15 148 -17 135 -2 148 -1 145 14 -2 10 -19 22 -43 28 -36 10
-40 16 -47 51 -4 22 -7 93 -7 158 -1 131 9 170 55 206 32 25 59 22 104 -10 23
-17 31 -19 49 -9 21 11 41 47 41 75 0 21 -53 45 -100 45 -48 0 -73 -11 -115
-51 l-30 -29 3 40 c5 46 12 44 -106 21z"/>
<path d="M4510 1292 c-62 -13 -86 -21 -88 -34 -2 -11 6 -18 26 -23 58 -12 65
-32 70 -183 2 -75 0 -162 -5 -192 -8 -53 -9 -55 -48 -66 -23 -6 -41 -18 -43
-27 -3 -15 12 -17 146 -17 141 0 150 1 145 18 -3 12 -19 22 -41 28 -32 8 -37
14 -45 49 -5 22 -7 136 -5 253 3 184 1 212 -12 211 -8 0 -53 -8 -100 -17z"/>
</g>
</svg>
