<?xml version="1.0" standalone="no"?>
<!DOCTYPE svg PUBLIC "-//W3C//DTD SVG 20010904//EN"
 "http://www.w3.org/TR/2001/REC-SVG-20010904/DTD/svg10.dtd">
<svg version="1.0" xmlns="http://www.w3.org/2000/svg"
 width="1286.000000pt" height="286.000000pt" viewBox="0 0 1286.000000 286.000000"
 preserveAspectRatio="xMidYMid meet">

<g transform="translate(0.000000,286.000000) scale(0.100000,-0.100000)"
fill="#000000" stroke="none">
<path d="M1397 2073 c-55 -69 -132 -134 -202 -169 -71 -37 -88 -55 -65 -69 21
-13 156 70 228 140 l73 71 72 -70 c83 -81 182 -138 322 -185 l90 -30 3 -63 c3
-67 -19 -183 -50 -262 -14 -36 -16 -52 -8 -60 17 -16 36 16 66 109 32 98 46
283 23 301 -8 6 -52 24 -99 39 -147 48 -235 99 -328 192 -46 46 -88 83 -93 83
-6 0 -20 -12 -32 -27z"/>
<path d="M3846 1962 c-6 -10 -95 -36 -158 -47 -55 -9 -52 -39 4 -51 33 -7 44
-15 49 -34 9 -31 11 -722 3 -772 -6 -34 -11 -39 -48 -49 -53 -14 -56 -17 -49
-34 4 -12 34 -15 164 -15 151 0 159 1 159 20 0 14 -9 21 -35 26 -64 12 -65 14
-65 230 0 179 2 196 19 213 74 74 191 61 227 -25 18 -43 29 -267 17 -344 -8
-53 -10 -55 -51 -70 -28 -10 -42 -20 -42 -32 0 -17 13 -18 161 -18 146 0 160
2 157 17 -2 10 -22 24 -48 33 -42 15 -45 18 -52 60 -3 25 -7 109 -7 187 -1
175 -13 232 -61 286 -34 37 -41 41 -97 45 -51 4 -71 0 -120 -22 -32 -15 -68
-37 -81 -49 l-24 -22 3 234 c2 161 -1 236 -8 238 -6 2 -14 0 -17 -5z"/>
<path d="M1399 1924 c-17 -21 0 -49 31 -49 31 0 48 28 31 49 -8 9 -21 16 -31
16 -10 0 -23 -7 -31 -16z"/>
<path d="M7663 1913 c-101 -35 -173 -137 -173 -242 1 -103 65 -178 240 -282
154 -91 174 -108 190 -164 38 -137 -67 -237 -218 -204 -70 14 -126 66 -157
144 -21 53 -27 60 -54 63 -37 4 -37 3 -15 -129 9 -53 22 -99 30 -105 28 -22
191 -47 272 -42 209 13 338 192 256 356 -29 59 -85 106 -229 193 -113 68 -169
122 -185 176 -36 119 64 218 186 184 62 -18 124 -84 141 -151 7 -28 15 -36 36
-38 l27 -3 -1 68 c0 37 -4 88 -7 112 l-7 44 -75 18 c-90 22 -199 23 -257 2z"/>
<path d="M2890 1896 c0 -19 15 -28 64 -41 33 -8 41 -15 48 -43 13 -51 6 -769
-8 -782 -6 -7 -30 -14 -53 -17 -35 -5 -41 -9 -41 -29 l0 -24 185 0 c174 0 185
1 185 19 0 13 -13 22 -52 32 -38 10 -56 21 -65 39 -10 19 -13 111 -11 402 2
207 6 380 10 384 5 4 43 8 85 8 97 1 133 -17 168 -88 49 -99 29 -227 -45 -290
-40 -33 -68 -40 -141 -33 -52 4 -59 3 -59 -12 0 -35 38 -55 111 -59 63 -4 77
-1 135 28 101 50 163 149 163 265 1 101 -44 171 -144 224 -49 26 -52 26 -292
29 -211 3 -243 1 -243 -12z"/>
<path d="M10742 1874 c-19 -13 -22 -23 -20 -56 7 -94 121 -102 144 -11 15 59
-70 106 -124 67z"/>
<path d="M970 1812 c-51 -16 -56 -21 -64 -56 -13 -51 7 -201 39 -295 13 -40
45 -114 70 -164 25 -50 45 -92 45 -94 0 -1 -22 -3 -48 -3 -39 0 -53 5 -72 25
-13 14 -31 25 -40 25 -9 0 -25 9 -35 20 -43 47 -123 1 -97 -55 15 -33 53 -41
90 -19 30 17 31 17 62 -9 28 -24 40 -27 102 -27 56 0 74 -4 84 -17 7 -10 14
-21 14 -25 0 -5 -56 -8 -124 -8 -98 0 -126 3 -136 15 -19 23 -66 19 -84 -7 -9
-12 -16 -28 -16 -35 0 -20 38 -53 60 -53 11 0 29 9 40 20 18 18 33 20 158 20
134 -1 137 -1 155 -25 l18 -25 -81 0 c-45 0 -80 4 -80 10 0 16 -40 32 -64 26
-49 -12 -53 -81 -6 -106 21 -11 70 2 70 20 0 6 36 10 93 10 87 0 95 -2 117
-25 l23 -25 -53 0 c-45 0 -59 -5 -82 -27 l-28 -27 -23 22 c-27 25 -55 28 -81
9 -21 -16 -24 -60 -6 -82 16 -19 64 -19 84 0 8 8 21 15 30 15 8 0 28 11 44 25
24 20 41 25 87 25 l58 0 61 -65 c34 -36 68 -65 75 -65 8 0 44 29 79 65 l65 65
62 0 c53 0 65 -4 85 -25 13 -14 31 -25 41 -25 9 0 22 -7 29 -15 20 -25 67 -19
87 11 15 24 15 29 2 53 -19 34 -61 39 -88 12 -27 -27 -33 -26 -61 4 -19 20
-33 25 -72 25 -52 0 -58 7 -30 33 29 27 183 24 221 -3 22 -17 32 -19 54 -11
50 19 44 94 -9 107 -18 5 -31 0 -48 -15 -18 -17 -35 -21 -94 -21 -75 0 -84 6
-54 33 15 14 42 17 154 17 122 0 137 -2 153 -20 22 -24 58 -26 79 -4 19 18 21
65 4 82 -17 17 -77 15 -84 -3 -5 -12 -30 -15 -136 -15 l-130 0 14 23 c13 19
25 22 90 25 65 2 78 6 98 27 27 28 52 32 70 10 38 -45 113 12 87 66 -17 33
-81 40 -97 10 -6 -12 -18 -21 -26 -21 -9 0 -29 -11 -46 -25 -23 -19 -41 -25
-79 -25 -27 0 -49 2 -49 4 0 2 11 24 25 47 29 52 31 69 8 69 -12 0 -33 -28
-61 -78 -52 -94 -151 -229 -257 -352 l-80 -92 -68 72 c-90 96 -204 248 -271
362 -96 165 -142 297 -153 439 l-6 86 67 23 c40 13 66 27 66 36 0 18 -31 17
-100 -4z m-132 -574 c-3 -7 -11 -13 -18 -13 -7 0 -15 6 -17 13 -3 7 4 12 17
12 13 0 20 -5 18 -12z m1222 -3 c0 -8 -7 -15 -15 -15 -8 0 -15 7 -15 15 0 8 7
15 15 15 8 0 15 -7 15 -15z m0 -151 c0 -16 -16 -19 -25 -4 -8 13 4 32 16 25 5
-4 9 -13 9 -21z m-1222 4 c-3 -7 -11 -13 -18 -13 -7 0 -15 6 -17 13 -3 7 4 12
17 12 13 0 20 -5 18 -12z m157 -78 c11 -17 -5 -32 -21 -19 -7 6 -11 15 -8 20
7 12 21 11 29 -1z m900 -10 c0 -7 -6 -15 -12 -17 -8 -3 -13 4 -13 17 0 13 5
20 13 18 6 -3 12 -11 12 -18z m-845 -135 c0 -8 -7 -15 -15 -15 -8 0 -15 7 -15
15 0 8 7 15 15 15 8 0 15 -7 15 -15z m795 4 c10 -15 -1 -23 -20 -15 -9 3 -13
10 -10 16 8 13 22 13 30 -1z"/>
<path d="M5279 1708 c-23 -44 -89 -125 -114 -138 -16 -8 -25 -22 -25 -37 0
-21 5 -23 44 -23 l45 0 3 -224 c3 -210 4 -226 24 -253 60 -81 157 -97 252 -43
54 32 57 36 43 59 -7 11 -16 11 -54 -4 -38 -14 -51 -15 -81 -5 -63 21 -71 47
-74 273 l-4 197 100 0 c95 0 100 1 106 23 12 47 11 47 -99 47 l-105 0 0 75 c0
73 -1 75 -25 75 -15 0 -29 -8 -36 -22z"/>
<path d="M11130 1680 c-18 -28 -55 -70 -82 -95 -59 -53 -59 -75 1 -75 l39 0 4
-212 c3 -193 5 -217 24 -253 44 -84 152 -109 252 -59 35 17 52 32 52 44 0 28
-12 30 -61 13 -40 -14 -47 -14 -82 0 -60 26 -67 54 -67 277 l0 190 99 0 99 0
5 27 c3 16 3 31 0 35 -2 5 -49 8 -104 8 l-99 0 0 75 c0 72 -1 75 -24 75 -18 0
-32 -13 -56 -50z"/>
<path d="M1010 1701 c-12 -23 -5 -47 16 -55 21 -8 42 3 49 25 14 42 -44 68
-65 30z"/>
<path d="M1803 1713 c-18 -6 -16 -48 1 -62 19 -16 56 2 56 27 0 32 -26 48 -57
35z"/>
<path d="M1363 1671 c-41 -26 -60 -56 -69 -108 -4 -24 -10 -43 -15 -43 -5 0
-18 -9 -29 -20 -17 -17 -20 -33 -20 -119 0 -84 3 -102 21 -125 l20 -26 160 0
c205 0 199 -4 199 148 0 93 -3 111 -18 125 -10 10 -24 17 -30 17 -7 0 -12 14
-12 30 0 103 -122 174 -207 121z m118 -31 c24 -13 49 -61 49 -95 l0 -25 -101
0 -102 0 6 38 c11 69 89 113 148 82z m104 -265 l0 -100 -155 0 -155 0 -3 89
c-2 49 0 96 2 103 5 11 37 13 158 11 l153 -3 0 -100z"/>
<path d="M1406 1414 c-20 -19 -20 -38 -1 -54 8 -7 15 -21 15 -31 0 -29 17 -23
34 13 21 41 20 65 -3 78 -25 13 -27 13 -45 -6z"/>
<path d="M9485 1585 c-33 -7 -77 -16 -97 -19 -53 -10 -52 -39 1 -54 27 -9 42
-20 49 -40 6 -15 13 -99 15 -187 5 -171 17 -227 60 -273 69 -74 178 -69 276
13 l31 27 0 -47 c0 -54 -12 -51 120 -25 77 14 94 22 98 42 2 11 -9 17 -37 22
-26 4 -44 13 -51 27 -7 13 -11 105 -9 270 1 137 -1 252 -3 255 -3 2 -36 -2
-74 -10 -38 -7 -86 -17 -106 -20 -52 -9 -52 -39 0 -54 56 -17 62 -38 62 -226
l0 -162 -32 -31 c-18 -17 -44 -34 -56 -38 -37 -11 -90 3 -116 31 -41 45 -48
90 -45 307 2 167 0 202 -12 204 -8 0 -41 -5 -74 -12z"/>
<path d="M11575 1590 c-112 -4 -140 -8 -140 -19 0 -8 18 -20 41 -28 29 -10 46
-24 61 -51 30 -52 213 -513 213 -534 0 -37 -50 -153 -78 -181 -18 -18 -45 -32
-68 -36 -50 -8 -70 -41 -48 -83 29 -55 122 -25 168 55 14 23 86 211 161 417
91 252 143 381 157 393 12 10 35 21 50 24 22 4 28 11 26 26 -3 19 -11 20 -136
21 -129 1 -132 0 -132 -20 0 -17 8 -23 35 -28 62 -12 62 -28 -2 -216 -32 -94
-61 -170 -64 -170 -6 0 -149 343 -149 358 0 6 16 16 35 22 27 9 35 17 35 36 0
14 -5 23 -12 22 -7 -1 -76 -5 -153 -8z"/>
<path d="M4626 1570 c-64 -25 -139 -99 -167 -164 -32 -72 -32 -192 0 -257 32
-68 81 -120 142 -154 49 -27 62 -30 149 -30 87 0 100 3 149 30 101 56 161 160
161 280 0 121 -56 217 -165 281 -66 38 -193 45 -269 14z m170 -56 c80 -38 134
-142 134 -258 0 -180 -128 -289 -246 -210 -48 33 -59 47 -89 109 -95 202 36
437 201 359z"/>
<path d="M5819 1575 c-59 -19 -137 -89 -167 -148 -63 -127 -40 -279 58 -377
68 -68 111 -85 220 -85 86 0 100 3 148 29 221 123 221 441 0 561 -43 24 -67
29 -133 32 -51 2 -97 -3 -126 -12z m148 -56 c37 -14 90 -65 113 -110 45 -87
43 -223 -5 -305 -30 -51 -59 -73 -108 -81 -53 -8 -102 13 -146 63 -51 58 -71
118 -71 213 0 138 64 228 162 230 15 1 39 -4 55 -10z"/>
<path d="M6443 1566 c-95 -18 -103 -22 -103 -43 0 -18 6 -23 24 -23 13 0 34
-9 47 -19 23 -19 24 -24 27 -198 2 -98 1 -197 -3 -220 -6 -43 -8 -44 -67 -57
-19 -4 -28 -13 -28 -26 0 -19 7 -20 160 -20 152 0 160 1 160 20 0 14 -9 21
-35 26 -64 12 -65 15 -65 229 l0 194 28 26 c42 39 95 52 145 34 57 -20 77 -52
89 -145 12 -96 5 -298 -11 -318 -6 -8 -27 -17 -46 -20 -26 -5 -35 -12 -35 -26
0 -19 8 -20 160 -20 148 0 160 1 160 18 0 13 -13 23 -47 33 l-48 14 -7 55 c-3
30 -7 116 -7 190 -2 193 -26 271 -96 304 -68 33 -170 13 -252 -50 l-33 -25 0
45 c0 26 -3 45 -7 44 -5 0 -54 -10 -110 -22z"/>
<path d="M8347 1576 c-50 -18 -103 -60 -132 -104 -58 -90 -70 -237 -28 -333
68 -153 241 -223 381 -153 57 28 102 75 102 105 0 24 3 24 -62 -6 -61 -29
-162 -34 -206 -11 -60 32 -108 105 -119 181 l-6 45 207 0 c189 0 206 1 207 18
9 112 -44 211 -136 253 -48 22 -152 24 -208 5z m153 -66 c31 -22 70 -94 70
-128 0 -22 -3 -22 -139 -22 -81 0 -142 4 -146 10 -7 12 29 97 53 123 37 41
116 49 162 17z"/>
<path d="M8966 1580 c-73 -23 -144 -104 -172 -195 -7 -27 -14 -79 -14 -116 0
-129 58 -227 166 -280 56 -28 71 -31 131 -27 37 2 85 12 105 22 48 23 108 82
108 106 0 25 -5 25 -64 -5 -66 -33 -161 -35 -217 -3 -72 40 -109 120 -109 237
1 130 58 211 150 211 40 0 48 -5 95 -55 74 -80 127 -73 129 17 1 38 -1 41 -49
66 -41 22 -64 27 -140 29 -49 1 -103 -2 -119 -7z"/>
<path d="M10203 1567 c-96 -18 -103 -21 -103 -43 0 -19 5 -24 25 -24 14 0 37
-11 50 -25 25 -24 25 -26 25 -208 0 -241 -1 -244 -56 -258 -33 -8 -44 -16 -44
-30 0 -18 10 -19 160 -19 153 0 160 1 160 20 0 13 -9 22 -27 26 -55 12 -61 15
-67 37 -3 12 -6 102 -6 200 l0 177 34 37 c41 45 91 51 129 15 36 -34 73 -28
96 15 30 58 -10 103 -93 103 -52 0 -96 -19 -144 -64 l-24 -21 2 30 c3 42 1 55
-7 54 -5 -1 -54 -10 -110 -22z"/>
<path d="M10775 1575 c-33 -7 -77 -16 -97 -19 -53 -10 -52 -39 2 -55 22 -6 44
-20 50 -31 6 -11 10 -104 10 -224 0 -227 0 -228 -65 -240 -26 -5 -35 -12 -35
-26 0 -19 8 -20 160 -20 151 0 160 1 160 19 0 14 -12 23 -42 33 -35 11 -43 19
-51 48 -5 19 -7 146 -5 283 3 215 1 247 -12 246 -8 -1 -42 -7 -75 -14z"/>
<path d="M1400 975 c-23 -28 9 -72 45 -59 36 14 24 74 -15 74 -10 0 -23 -7
-30 -15z"/>
</g>
</svg>
