<?xml version="1.0" standalone="no"?>
<!DOCTYPE svg PUBLIC "-//W3C//DTD SVG 20010904//EN"
 "http://www.w3.org/TR/2001/REC-SVG-20010904/DTD/svg10.dtd">
<svg version="1.0" xmlns="http://www.w3.org/2000/svg"
 width="1286.000000pt" height="286.000000pt" viewBox="0 0 1286.000000 286.000000"
 preserveAspectRatio="xMidYMid meet">

<g transform="translate(0.000000,286.000000) scale(0.100000,-0.100000)"
fill="#000000" stroke="none">
<path d="M0 1430 l0 -1430 6430 0 6430 0 0 1430 0 1430 -6430 0 -6430 0 0
-1430z m1522 587 c93 -93 181 -144 328 -192 47 -15 91 -33 99 -39 23 -18 9
-203 -23 -301 -30 -93 -49 -125 -66 -109 -8 8 -6 24 8 60 31 79 53 195 50 262
l-3 63 -90 30 c-140 47 -239 104 -322 185 l-72 70 -73 -71 c-79 -76 -211 -156
-230 -137 -16 16 -3 29 73 68 65 35 142 100 196 167 12 15 26 27 32 27 5 0 47
-37 93 -83z m2349 -288 l-3 -234 24 22 c13 12 49 34 81 49 49 22 69 26 120 22
56 -4 63 -8 97 -45 48 -54 60 -111 61 -286 0 -78 4 -162 7 -187 7 -42 10 -45
52 -60 26 -9 46 -23 48 -33 3 -15 -11 -17 -157 -17 -148 0 -161 1 -161 18 0
12 14 22 42 32 41 15 43 17 51 70 12 77 1 301 -17 344 -36 86 -153 99 -227 25
-17 -17 -19 -34 -19 -213 0 -216 1 -218 65 -230 26 -5 35 -12 35 -26 0 -19 -8
-20 -159 -20 -130 0 -160 3 -164 15 -7 17 -4 20 49 34 37 10 42 15 48 49 8 50
6 741 -3 772 -5 19 -16 27 -49 34 -56 12 -59 42 -4 51 63 11 152 37 158 47 3
5 11 7 17 5 7 -2 10 -77 8 -238z m-2410 195 c17 -21 0 -49 -31 -49 -31 0 -48
28 -31 49 8 9 21 16 31 16 10 0 23 -7 31 -16z m6459 -13 l75 -18 7 -44 c3 -24
7 -75 7 -112 l1 -68 -27 3 c-21 2 -29 10 -36 38 -17 67 -79 133 -141 151 -122
34 -222 -65 -186 -184 16 -54 72 -108 185 -176 144 -87 200 -134 229 -193 82
-164 -47 -343 -256 -356 -81 -5 -244 20 -272 42 -8 6 -21 52 -30 105 -22 132
-22 133 15 129 27 -3 33 -10 54 -63 31 -78 87 -130 156 -144 131 -28 236 46
226 159 -7 90 -34 116 -223 225 -185 106 -246 217 -198 358 19 56 94 128 157
150 58 21 167 20 257 -2z m-4495 -32 c100 -53 145 -123 144 -224 0 -116 -62
-215 -163 -265 -58 -29 -72 -32 -135 -28 -73 4 -111 24 -111 59 0 15 7 16 59
12 73 -7 101 0 141 33 74 63 94 191 45 290 -35 71 -71 89 -168 88 -42 0 -80
-4 -85 -8 -4 -4 -8 -177 -10 -384 -2 -291 1 -383 11 -402 9 -18 27 -29 65 -39
39 -10 52 -19 52 -32 0 -18 -11 -19 -185 -19 l-185 0 0 24 c0 20 6 24 41 29
23 3 47 10 53 17 14 13 21 731 8 782 -7 28 -15 35 -48 43 -49 13 -64 22 -64
41 0 13 32 15 243 12 240 -3 243 -3 292 -29z m7428 -21 c48 -64 -37 -149 -101
-101 -38 28 -43 94 -10 117 34 24 87 17 111 -16z m-9783 -42 c0 -9 -26 -23
-66 -36 l-67 -23 6 -86 c11 -142 57 -274 153 -439 67 -113 181 -265 271 -362
l68 -72 81 93 c108 126 204 257 256 351 28 50 49 78 61 78 23 0 21 -17 -8 -69
-14 -23 -25 -45 -25 -47 0 -2 22 -4 49 -4 38 0 56 6 79 25 17 14 37 25 46 25
8 0 20 9 26 21 16 30 80 23 97 -10 12 -25 3 -57 -21 -73 -18 -13 -53 -9 -66 7
-18 22 -43 18 -70 -10 -20 -21 -33 -25 -98 -27 -65 -3 -77 -6 -90 -25 l-14
-23 130 0 c106 0 131 3 136 15 7 18 67 20 84 3 17 -17 15 -64 -4 -82 -21 -22
-57 -20 -79 4 -16 18 -31 20 -153 20 -112 0 -139 -3 -154 -17 -30 -27 -21 -33
54 -33 59 0 76 4 94 21 17 15 30 20 48 15 53 -13 59 -88 9 -107 -22 -8 -32 -6
-54 11 -38 27 -192 30 -221 3 -28 -26 -22 -33 30 -33 39 0 53 -5 72 -25 28
-30 34 -31 61 -4 27 27 69 22 88 -12 13 -24 13 -29 -2 -53 -20 -30 -67 -36
-87 -11 -7 8 -20 15 -29 15 -10 0 -28 11 -41 25 -20 21 -32 25 -85 25 l-62 0
-65 -65 c-35 -36 -71 -65 -79 -65 -7 0 -41 29 -75 65 l-61 65 -58 0 c-46 0
-63 -5 -87 -25 -16 -14 -36 -25 -44 -25 -9 0 -22 -7 -30 -15 -20 -19 -68 -19
-84 0 -18 22 -15 66 6 82 26 19 54 16 81 -9 l23 -22 28 27 c23 22 37 27 82 27
l53 0 -23 25 c-22 23 -30 25 -117 25 -57 0 -93 -4 -93 -10 0 -18 -49 -31 -70
-20 -47 25 -43 94 6 106 24 6 64 -10 64 -26 0 -6 35 -10 80 -10 l81 0 -18 25
c-18 24 -21 24 -155 25 -125 0 -140 -2 -158 -20 -11 -11 -29 -20 -40 -20 -22
0 -60 33 -60 53 0 7 7 23 16 35 18 26 65 30 84 7 10 -12 38 -15 136 -15 68 0
124 3 124 8 0 4 -7 15 -14 25 -10 13 -28 17 -84 17 -62 0 -74 3 -102 27 -31
26 -32 26 -62 9 -37 -22 -75 -14 -90 19 -26 56 54 102 97 55 10 -11 26 -20 35
-20 9 0 27 -11 40 -25 19 -20 33 -25 72 -25 26 0 48 2 48 3 0 2 -20 44 -45 94
-25 50 -57 124 -70 164 -32 94 -52 244 -39 295 8 35 13 40 64 56 69 21 100 22
100 4z m4270 -161 l0 -75 105 0 c110 0 111 0 99 -47 -6 -22 -11 -23 -106 -23
l-100 0 4 -197 c3 -226 11 -252 74 -273 30 -10 43 -9 81 5 38 15 47 15 54 4
14 -23 11 -27 -43 -59 -95 -54 -192 -38 -252 43 -20 27 -21 43 -24 253 l-3
224 -45 0 c-39 0 -44 2 -44 23 0 15 9 29 25 37 25 13 91 94 114 138 7 14 21
22 36 22 24 0 25 -2 25 -75z m5870 0 l0 -75 99 0 c55 0 102 -3 104 -8 3 -4 3
-19 0 -35 l-5 -27 -99 0 -99 0 0 -190 c0 -223 7 -251 67 -277 35 -14 42 -14
82 0 49 17 61 15 61 -13 0 -12 -17 -27 -52 -44 -100 -50 -208 -25 -252 59 -19
36 -21 60 -24 253 l-4 212 -39 0 c-60 0 -60 22 -1 75 27 25 64 67 82 95 24 37
38 50 56 50 23 0 24 -3 24 -75z m-10140 50 c14 -17 5 -51 -15 -59 -35 -13 -63
21 -45 55 13 23 43 25 60 4z m778 3 c18 -18 14 -46 -9 -58 -26 -14 -49 3 -49
35 0 32 35 46 58 23z m-332 -49 c35 -32 54 -71 54 -109 0 -16 5 -30 12 -30 6
0 20 -7 30 -17 15 -14 18 -32 18 -125 0 -152 6 -148 -199 -148 l-160 0 -20 26
c-18 23 -21 41 -21 125 0 86 3 102 20 119 11 11 24 20 29 20 5 0 11 19 15 43
9 52 28 82 69 108 43 27 117 21 153 -12z m8055 -266 c-3 -223 4 -265 51 -310
24 -23 38 -28 78 -28 42 0 54 5 84 34 l36 35 0 162 c0 188 -6 209 -62 226 -52
15 -52 45 0 54 20 3 68 13 106 20 38 8 71 12 74 10 2 -3 4 -118 3 -255 -2
-165 2 -257 9 -270 7 -14 25 -23 51 -27 28 -5 39 -11 37 -22 -4 -20 -21 -28
-98 -42 -132 -26 -120 -29 -120 25 l0 47 -31 -27 c-51 -42 -105 -65 -154 -65
-133 0 -185 102 -185 359 0 153 -8 176 -62 193 -52 15 -52 45 0 54 20 3 64 12
97 19 33 7 66 12 74 12 12 -2 14 -37 12 -204z m2169 183 c0 -19 -8 -27 -35
-36 -19 -6 -35 -16 -35 -22 0 -15 143 -358 149 -358 3 0 32 76 64 170 64 188
64 204 2 216 -27 5 -35 11 -35 28 0 20 3 21 132 20 125 -1 133 -2 136 -21 2
-15 -4 -22 -26 -26 -15 -3 -38 -14 -50 -24 -14 -12 -66 -141 -157 -393 -75
-206 -147 -394 -161 -417 -46 -80 -139 -110 -168 -55 -22 42 -2 75 48 83 23 4
50 18 68 36 28 28 78 144 78 181 0 21 -183 482 -213 534 -15 27 -32 41 -61 51
-23 8 -41 20 -41 28 0 11 28 15 140 19 77 3 146 7 153 8 7 1 12 -8 12 -22z
m-6845 -20 c109 -64 165 -160 165 -281 0 -120 -60 -224 -161 -280 -49 -27 -62
-30 -149 -30 -87 0 -100 3 -149 30 -61 34 -110 86 -142 154 -32 65 -32 185 0
257 28 65 103 139 167 164 76 31 203 24 269 -14z m1183 -1 c222 -120 220 -446
-2 -563 -45 -24 -62 -27 -146 -27 -80 0 -102 4 -138 23 -201 107 -236 377 -69
528 63 57 119 75 222 71 66 -3 90 -8 133 -32z m482 -11 l0 -45 33 25 c82 63
184 83 252 50 70 -33 94 -111 96 -304 0 -74 4 -160 7 -190 l7 -55 48 -14 c34
-10 47 -20 47 -33 0 -17 -12 -18 -160 -18 -152 0 -160 1 -160 20 0 14 9 21 35
26 19 3 40 12 46 20 16 20 23 222 11 318 -12 93 -32 125 -89 145 -50 18 -103
5 -145 -34 l-28 -26 0 -194 c0 -214 1 -217 65 -229 26 -5 35 -12 35 -26 0 -19
-8 -20 -160 -20 -153 0 -160 1 -160 20 0 13 9 22 28 26 59 13 61 14 67 57 4
23 5 122 3 220 -3 174 -4 179 -27 198 -13 10 -34 19 -47 19 -18 0 -24 5 -24
23 0 21 8 25 103 43 56 12 105 22 110 22 4 1 7 -18 7 -44z m1995 27 c92 -42
145 -141 136 -253 -1 -17 -18 -18 -207 -18 l-207 0 6 -45 c11 -76 59 -149 119
-181 44 -23 145 -18 206 11 65 30 62 30 62 6 0 -30 -45 -77 -102 -105 -140
-70 -313 0 -381 153 -42 96 -30 243 28 333 29 44 82 86 132 104 56 19 160 17
208 -5z m670 -13 c48 -25 50 -28 49 -66 -2 -90 -55 -97 -129 -17 -47 50 -55
55 -95 55 -92 0 -149 -81 -150 -211 0 -117 37 -197 109 -237 56 -32 151 -30
217 3 59 30 64 30 64 6 0 -23 -34 -60 -89 -96 -33 -23 -56 -29 -116 -33 -69
-4 -80 -2 -139 27 -73 36 -126 96 -152 173 -34 103 -3 271 63 343 65 70 110
86 228 82 75 -2 100 -7 140 -29z m1096 20 c1 -7 0 -26 -1 -43 l-2 -30 24 21
c74 68 171 86 224 41 22 -19 25 -28 19 -55 -13 -63 -59 -80 -102 -40 -38 36
-88 30 -129 -15 l-34 -37 0 -177 c0 -98 3 -188 6 -201 5 -16 18 -25 50 -33 33
-8 44 -16 44 -30 0 -18 -10 -19 -160 -19 -150 0 -160 1 -160 19 0 14 11 22 44
30 55 14 56 17 56 258 0 182 0 184 -25 208 -13 14 -36 25 -50 25 -20 0 -25 5
-25 24 0 22 7 25 103 43 56 12 105 21 110 22 4 0 7 -5 8 -11z m541 -235 c-2
-137 0 -264 5 -283 8 -29 16 -37 51 -48 30 -10 42 -19 42 -33 0 -18 -9 -19
-160 -19 -152 0 -160 1 -160 20 0 14 9 21 35 26 65 12 65 13 65 240 0 120 -4
213 -10 224 -6 11 -28 25 -50 31 -54 16 -55 45 -2 55 20 3 64 12 97 19 33 7
67 13 75 14 13 1 15 -31 12 -246z m-9402 -368 c14 -17 5 -51 -15 -59 -35 -13
-63 21 -45 55 13 23 43 25 60 4z"/>
<path d="M803 1238 c2 -7 10 -13 17 -13 7 0 15 6 18 13 2 7 -5 12 -18 12 -13
0 -20 -5 -17 -12z"/>
<path d="M2030 1235 c0 -8 7 -15 15 -15 8 0 15 7 15 15 0 8 -7 15 -15 15 -8 0
-15 -7 -15 -15z"/>
<path d="M2035 1100 c-7 -12 2 -30 16 -30 12 0 12 27 0 35 -5 3 -12 1 -16 -5z"/>
<path d="M803 1088 c2 -7 10 -13 17 -13 7 0 15 6 18 13 2 7 -5 12 -18 12 -13
0 -20 -5 -17 -12z"/>
<path d="M966 1011 c-3 -5 1 -14 8 -20 16 -13 32 2 21 19 -8 12 -22 13 -29 1z"/>
<path d="M1870 1000 c0 -13 5 -20 13 -17 6 2 12 10 12 17 0 7 -6 15 -12 18 -8
2 -13 -5 -13 -18z"/>
<path d="M1020 865 c0 -8 7 -15 15 -15 8 0 15 7 15 15 0 8 -7 15 -15 15 -8 0
-15 -7 -15 -15z"/>
<path d="M1815 870 c-3 -6 1 -13 10 -16 19 -8 30 0 20 15 -8 14 -22 14 -30 1z"/>
<path d="M1370 1623 c-20 -18 -33 -41 -37 -65 l-6 -38 102 0 101 0 0 25 c0 92
-94 137 -160 78z"/>
<path d="M1274 1467 c-2 -7 -4 -54 -2 -103 l3 -89 155 0 155 0 0 100 0 100
-153 3 c-121 2 -153 0 -158 -11z m177 -47 c23 -13 24 -37 3 -78 -17 -36 -34
-42 -34 -13 0 10 -7 24 -15 31 -19 16 -19 35 1 54 18 19 20 19 45 6z"/>
<path d="M4663 1510 c-98 -59 -129 -225 -68 -355 30 -62 41 -76 89 -109 63
-42 126 -34 183 24 86 88 84 287 -3 389 -60 69 -138 90 -201 51z"/>
<path d="M5860 1519 c-69 -28 -110 -110 -110 -220 0 -95 20 -155 71 -213 59
-67 140 -84 205 -42 62 41 99 164 83 270 -25 152 -141 248 -249 205z"/>
<path d="M8352 1505 c-31 -26 -77 -119 -67 -135 4 -6 66 -10 146 -10 136 0
139 0 139 22 0 34 -39 106 -70 128 -41 29 -110 27 -148 -5z"/>
</g>
</svg>
