<?xml version="1.0" standalone="no"?>
<!DOCTYPE svg PUBLIC "-//W3C//DTD SVG 20010904//EN"
 "http://www.w3.org/TR/2001/REC-SVG-20010904/DTD/svg10.dtd">
<svg version="1.0" xmlns="http://www.w3.org/2000/svg"
 width="1286.000000pt" height="286.000000pt" viewBox="0 0 1286.000000 286.000000"
 preserveAspectRatio="xMidYMid meet">
<metadata>
Created by potrace 1.16, written by Peter Selinger 2001-2019
</metadata>
<g transform="translate(0.000000,286.000000) scale(0.100000,-0.100000)"
fill="#000000" stroke="none">
<path d="M1385 2063 c-19 -21 -35 -41 -35 -45 0 -12 -124 -100 -177 -126 -35
-17 -53 -32 -53 -44 0 -22 10 -22 55 -4 72 30 184 116 232 178 l21 28 73 -73
c83 -82 195 -145 338 -192 l84 -28 -6 -94 c-5 -64 -16 -122 -37 -184 -17 -50
-28 -95 -24 -100 21 -35 57 35 89 171 18 81 20 223 3 238 -7 5 -56 24 -108 42
-146 48 -223 94 -318 188 -46 45 -88 82 -94 82 -5 0 -25 -17 -43 -37z"/>
<path d="M3790 1944 c-36 -13 -75 -23 -88 -24 -31 0 -62 -18 -62 -35 0 -9 15
-17 38 -20 58 -10 59 -11 66 -61 8 -59 6 -709 -3 -749 -5 -25 -13 -32 -53 -44
-35 -10 -48 -20 -48 -33 0 -17 12 -18 165 -18 158 0 165 1 165 20 0 15 -11 22
-44 31 -31 8 -46 17 -50 32 -3 12 -6 104 -6 203 l0 182 35 30 c48 42 91 49
150 23 28 -12 45 -26 43 -33 -3 -7 2 -18 11 -25 14 -10 16 -40 16 -205 l0
-193 -42 -13 c-31 -10 -43 -19 -43 -33 0 -18 9 -19 160 -19 153 0 160 1 160
20 0 15 -11 22 -45 31 -30 8 -46 18 -51 32 -4 11 -9 109 -13 216 -6 178 -9
201 -30 244 -31 64 -69 87 -144 87 -63 0 -113 -17 -163 -55 -18 -14 -36 -25
-39 -25 -4 0 -5 102 -4 227 2 138 -1 227 -6 228 -6 1 -39 -8 -75 -21z"/>
<path d="M1400 1925 c-14 -16 -5 -51 14 -58 25 -10 52 4 53 26 4 42 -41 64
-67 32z"/>
<path d="M7645 1906 c-124 -58 -181 -178 -145 -307 17 -59 101 -137 234 -214
141 -83 170 -108 186 -162 34 -113 -42 -206 -167 -204 -102 1 -185 64 -215
164 -13 44 -50 69 -70 49 -9 -9 -7 -40 6 -127 l18 -115 37 -9 c150 -39 305
-41 377 -3 101 52 154 132 154 231 0 109 -50 169 -239 285 -140 87 -185 128
-201 184 -42 159 133 251 260 136 24 -22 47 -56 58 -87 16 -43 24 -53 46 -55
l26 -3 -1 73 c0 40 -3 91 -7 112 -7 39 -8 40 -77 58 -103 26 -217 24 -280 -6z"/>
<path d="M2892 1888 c2 -16 11 -24 28 -26 56 -7 77 -22 84 -60 3 -20 6 -185 6
-367 0 -181 -3 -347 -6 -367 -7 -38 -28 -53 -84 -60 -17 -2 -26 -10 -28 -25
l-3 -23 190 0 c184 0 191 1 191 20 0 13 -9 21 -27 25 -66 14 -90 32 -96 72
-10 60 -8 709 2 736 8 20 19 25 60 31 138 18 221 -62 221 -214 0 -67 -26 -126
-69 -163 -42 -35 -69 -41 -142 -33 -58 6 -59 5 -59 -19 0 -36 44 -55 128 -55
117 0 205 59 258 174 49 105 21 249 -59 310 -78 59 -115 66 -368 66 l-230 0 3
-22z"/>
<path d="M10737 1872 c-24 -26 -22 -87 3 -112 64 -64 166 31 110 103 -26 33
-87 38 -113 9z"/>
<path d="M970 1814 c-58 -18 -70 -36 -70 -103 0 -127 37 -261 112 -408 l46
-93 -50 0 c-39 0 -57 6 -80 25 -16 14 -35 25 -43 25 -7 0 -18 7 -25 15 -17 21
-63 19 -83 -3 -21 -23 -21 -41 -1 -70 18 -26 65 -30 84 -7 18 21 33 19 60 -10
21 -22 32 -25 95 -25 57 0 75 -4 88 -18 10 -10 17 -22 17 -25 0 -4 -56 -7
-125 -7 -69 0 -125 4 -125 8 0 5 -12 14 -27 21 -23 10 -30 9 -52 -7 -32 -24
-37 -46 -17 -77 20 -31 58 -33 86 -5 18 18 33 20 158 20 134 -1 137 -1 155
-25 l18 -25 -74 0 c-61 0 -77 3 -92 20 -23 26 -59 26 -85 0 -27 -27 -25 -55 6
-79 33 -26 49 -26 74 -1 17 17 33 20 108 20 76 0 91 -3 107 -20 18 -20 17 -20
-23 -20 -32 0 -49 -7 -77 -31 l-36 -32 -23 22 c-28 26 -60 27 -86 1 -24 -24
-25 -38 -4 -68 18 -26 81 -31 90 -7 4 8 14 15 24 15 10 0 32 11 48 25 24 20
41 25 86 25 57 0 57 0 113 -60 79 -86 90 -87 164 -6 l61 66 56 0 c46 0 62 -5
86 -25 16 -14 37 -25 46 -25 10 0 23 -7 30 -15 17 -21 63 -19 83 3 52 57 -32
125 -88 72 l-22 -20 -39 31 c-30 23 -46 30 -71 27 -20 -2 -33 0 -33 7 0 27 27
35 115 35 76 0 95 -3 108 -18 10 -10 14 -21 11 -25 -4 -4 9 -2 27 3 19 6 40
18 47 27 43 59 -36 125 -88 73 -18 -18 -31 -20 -91 -18 l-69 3 15 23 c15 21
22 22 154 22 125 0 140 -2 156 -20 23 -26 59 -26 85 0 26 26 25 46 -5 75 -29
30 -49 31 -75 5 -18 -18 -33 -20 -145 -20 l-125 0 16 25 c15 23 23 25 88 25
64 0 75 3 96 25 27 28 52 32 70 10 17 -21 56 -19 80 5 24 24 25 38 4 68 -18
26 -81 31 -90 7 -4 -8 -13 -15 -22 -15 -8 0 -31 -12 -50 -27 -26 -19 -45 -26
-75 -25 -22 1 -42 4 -44 6 -2 2 6 24 19 50 16 33 19 49 11 57 -14 14 -16 11
-109 -136 -96 -153 -276 -375 -303 -375 -12 0 -99 97 -175 194 -130 165 -216
314 -270 465 -32 88 -55 254 -40 279 6 9 35 24 65 32 35 10 55 22 57 33 4 21
-32 21 -98 1z m-135 -573 c7 -12 -12 -24 -25 -16 -11 7 -4 25 10 25 5 0 11 -4
15 -9z m1225 -7 c0 -9 -5 -14 -12 -12 -18 6 -21 28 -4 28 9 0 16 -7 16 -16z
m-1220 -143 c0 -14 -18 -23 -30 -16 -6 4 -8 11 -5 16 8 12 35 12 35 0z m1220
-7 c0 -17 -22 -14 -28 4 -2 7 3 12 12 12 9 0 16 -7 16 -16z m-1062 -82 c2 -7
-3 -12 -12 -12 -9 0 -16 7 -16 16 0 17 22 14 28 -4z m900 0 c2 -7 -3 -12 -12
-12 -9 0 -16 7 -16 16 0 17 22 14 28 -4z m-850 -140 c2 -7 -3 -12 -12 -12 -9
0 -16 7 -16 16 0 17 22 14 28 -4z m797 9 c7 -12 -12 -24 -25 -16 -11 7 -4 25
10 25 5 0 11 -4 15 -9z"/>
<path d="M5260 1680 c-18 -28 -55 -70 -82 -94 -59 -51 -57 -73 5 -78 l42 -3 2
-211 c1 -236 8 -265 67 -307 25 -18 44 -22 107 -22 66 0 81 4 117 28 44 29 47
34 33 55 -7 11 -16 11 -52 -1 -57 -19 -93 -12 -124 25 -25 29 -25 31 -25 234
l0 204 94 0 c99 0 106 3 106 51 0 17 -8 19 -100 19 l-100 0 0 59 c0 75 -6 91
-35 91 -17 0 -32 -14 -55 -50z"/>
<path d="M11138 1698 c-21 -44 -94 -125 -118 -133 -13 -4 -20 -15 -20 -31 0
-22 4 -24 44 -24 l45 0 3 -217 c3 -243 9 -264 78 -310 49 -34 138 -32 204 5
53 29 61 39 47 60 -7 11 -16 11 -52 -1 -54 -18 -91 -13 -123 19 -32 33 -36 59
-36 265 l0 179 99 0 c94 0 99 1 105 23 12 47 11 47 -99 47 l-105 0 0 75 0 75
-28 0 c-22 0 -32 -7 -44 -32z"/>
<path d="M1010 1705 c-10 -12 -10 -21 -1 -41 13 -29 47 -30 65 -1 23 37 -36
76 -64 42z"/>
<path d="M1790 1701 c-13 -25 -4 -48 21 -56 38 -12 65 35 37 63 -18 18 -46 14
-58 -7z"/>
<path d="M1375 1681 c-45 -19 -85 -84 -85 -137 0 -13 -4 -24 -10 -24 -5 0 -19
-9 -30 -20 -17 -17 -20 -33 -20 -125 0 -147 -3 -145 200 -145 207 0 200 -5
200 144 0 97 -3 115 -18 129 -10 10 -24 17 -30 17 -7 0 -12 13 -12 29 0 42
-14 74 -47 108 -23 24 -38 29 -78 31 -28 1 -59 -2 -70 -7z m104 -45 c28 -15
51 -53 51 -86 0 -19 -7 -20 -101 -20 l-101 0 6 33 c7 39 57 87 92 87 14 0 37
-6 53 -14z m106 -261 l0 -100 -149 -3 c-113 -2 -151 1 -158 10 -9 16 -11 182
-1 192 4 3 75 5 157 4 l151 -3 0 -100z"/>
<path d="M1399 1407 c-7 -16 -6 -32 6 -60 16 -39 45 -51 45 -18 0 11 5 23 10
26 14 9 13 48 -2 63 -19 19 -48 14 -59 -11z"/>
<path d="M9445 1579 c-49 -10 -91 -18 -93 -19 -2 0 -2 -10 0 -22 2 -16 11 -24
29 -26 57 -7 63 -28 70 -216 5 -144 9 -180 28 -229 31 -78 73 -107 156 -107
64 0 104 17 158 68 l27 26 0 -45 c0 -25 3 -48 6 -51 3 -4 20 -2 37 4 18 5 64
15 102 22 59 10 70 16 73 34 3 18 -3 23 -38 28 -32 5 -44 13 -52 33 -6 16 -8
123 -6 274 2 180 0 247 -8 247 -10 0 -122 -21 -191 -36 -36 -7 -30 -43 7 -51
17 -3 39 -17 50 -31 18 -22 20 -41 20 -188 0 -160 0 -163 -26 -193 -14 -17
-43 -36 -64 -42 -32 -10 -44 -9 -76 7 -73 36 -79 59 -79 312 0 257 16 231
-130 201z"/>
<path d="M11563 1593 c-123 -3 -133 -5 -133 -22 0 -13 10 -22 30 -26 60 -13
72 -34 185 -314 l109 -271 -22 -69 c-33 -102 -67 -138 -141 -150 -44 -8 -62
-48 -37 -86 22 -33 81 -34 120 -4 48 38 70 87 206 459 73 201 139 377 146 392
9 18 28 31 54 39 30 9 40 17 40 33 0 20 -5 21 -135 21 -132 0 -135 -1 -135
-22 0 -16 8 -23 29 -28 16 -3 36 -14 44 -23 15 -16 11 -32 -39 -185 -30 -92
-59 -167 -63 -167 -8 0 -105 221 -136 309 -13 39 -6 61 20 61 6 0 19 6 29 13
23 17 11 48 -18 45 -11 -1 -81 -4 -153 -5z"/>
<path d="M4601 1559 c-49 -24 -73 -45 -106 -90 -65 -88 -80 -179 -48 -293 22
-81 111 -174 191 -200 49 -17 164 -19 222 -4 30 7 89 49 121 85 56 64 79 127
79 219 0 70 -4 89 -30 142 -58 114 -153 172 -286 172 -71 0 -89 -4 -143 -31z
m196 -48 c84 -39 140 -158 131 -280 -14 -190 -171 -274 -282 -151 -47 52 -62
84 -76 159 -22 125 30 250 120 284 29 11 65 6 107 -12z"/>
<path d="M5830 1581 c-125 -38 -212 -159 -214 -295 -1 -139 65 -247 185 -301
56 -25 70 -27 148 -23 103 5 147 25 210 93 64 69 85 124 86 220 0 68 -4 89
-28 137 -34 70 -110 140 -174 162 -48 17 -168 20 -213 7z m146 -70 c81 -37
133 -132 133 -247 1 -113 -35 -191 -107 -228 -17 -9 -42 -16 -56 -16 -30 0
-76 20 -76 32 0 5 -4 7 -8 4 -13 -8 -56 42 -82 94 -29 56 -38 170 -20 235 16
56 51 105 93 127 41 22 72 22 123 -1z"/>
<path d="M6438 1567 c-61 -12 -99 -25 -102 -34 -8 -20 1 -33 24 -33 10 0 32
-11 47 -24 l28 -24 3 -180 c4 -225 0 -242 -59 -262 -25 -9 -44 -22 -44 -30 0
-13 28 -15 163 -18 157 -2 162 -2 162 18 0 15 -10 22 -45 31 -56 14 -57 18
-53 248 l3 174 38 31 c32 25 48 31 86 30 106 -1 134 -58 135 -273 1 -184 -2
-197 -54 -211 -29 -8 -40 -16 -40 -30 0 -19 8 -20 160 -20 152 0 160 1 160 20
0 14 -11 22 -42 31 -24 6 -46 16 -50 23 -4 6 -8 63 -8 126 -1 339 -41 430
-185 430 -67 0 -121 -21 -174 -66 l-34 -29 5 35 c6 41 1 61 -15 59 -7 -1 -56
-11 -109 -22z"/>
<path d="M8325 1566 c-104 -49 -156 -138 -163 -276 -5 -107 19 -179 81 -242
59 -61 107 -82 198 -86 63 -3 83 0 120 18 59 30 109 79 109 107 0 29 -1 29
-66 -3 -46 -22 -64 -26 -123 -22 -59 3 -75 8 -107 33 -45 37 -83 108 -87 161
l-2 39 202 3 c231 3 221 -2 203 93 -15 78 -56 138 -115 171 -68 38 -176 39
-250 4z m165 -53 c29 -17 80 -98 80 -127 0 -14 -18 -16 -140 -16 -137 0 -140
0 -140 22 0 32 47 106 78 122 36 20 88 20 122 -1z"/>
<path d="M8934 1567 c-54 -26 -86 -61 -125 -137 -18 -35 -24 -66 -27 -142 -4
-86 -2 -102 20 -150 55 -119 142 -178 263 -178 56 0 82 5 123 26 57 28 102 75
102 105 0 24 -10 24 -61 -3 -85 -44 -189 -36 -249 18 -58 52 -83 127 -78 230
5 92 27 139 82 173 61 38 110 25 171 -47 27 -31 44 -42 65 -42 35 0 60 32 60
77 0 28 -6 36 -47 60 -42 24 -60 28 -148 31 -89 3 -106 0 -151 -21z"/>
<path d="M10235 1575 c-33 -7 -77 -16 -97 -19 -32 -6 -38 -11 -38 -31 0 -18 5
-25 19 -25 71 0 81 -32 80 -247 -1 -98 -4 -189 -8 -203 -5 -18 -18 -29 -49
-38 -30 -10 -42 -19 -42 -33 0 -18 9 -19 160 -19 153 0 160 1 160 20 0 15 -10
22 -44 31 -55 14 -56 18 -56 231 0 117 4 166 14 186 34 66 92 84 146 44 34
-25 72 -28 90 -7 6 8 14 32 17 53 7 53 -19 72 -102 72 -63 0 -84 -9 -138 -59
l-28 -26 3 40 c4 47 -2 49 -87 30z"/>
<path d="M10745 1573 c-107 -20 -105 -19 -105 -43 0 -15 8 -22 30 -27 17 -3
39 -17 50 -31 18 -23 20 -41 20 -226 0 -110 -4 -206 -8 -212 -4 -7 -26 -17
-49 -23 -32 -9 -43 -17 -43 -31 0 -19 8 -20 165 -20 91 0 165 3 165 6 0 19
-24 44 -43 44 -13 0 -32 6 -43 14 -18 14 -19 29 -19 290 0 270 0 276 -20 275
-11 -1 -56 -8 -100 -16z"/>
<path d="M1400 975 c-14 -17 -5 -51 16 -59 22 -8 54 11 54 32 0 38 -46 56 -70
27z"/>
</g>
</svg>
